# xmcd CD database file
#
# Track frame offsets:
#	150
#	18027
#	35757
#	50795
#	63210
#	74180
#	87835
#	101335
#	117362
#	131335
#
# Disc length: 1960 seconds
#
# Revision: 0
# Processed by: cddbd v1.5.1PL0 Copyright (c) Steve Scherf et al.
# Submitted via: CDex 1.51
#
DISCID=8707a60a
DTITLE=Joyce'N' Weber - Joyce'N' Weber
DYEAR=1900
DGENRE=Country
TTITLE0=Midnight Spezial
TTITLE1=Who Turn The Light Out In The Moon
TTITLE2=What About You
TTITLE3=She Is My Point Of No Return
TTITLE4=The Yellow Rose Of Texas
TTITLE5=God Made Love
TTITLE6=Sweet Talking Memory
TTITLE7=I Can't Help It (She's Still On My Mind)
TTITLE8=Is It Love At All
TTITLE9=When You Walk By My Side
EXTD=
EXTT0=
EXTT1=
EXTT2=
EXTT3=
EXTT4=
EXTT5=
EXTT6=
EXTT7=
EXTT8=
EXTT9=
PLAYORDER=
